<svg width="2000" height="2001" viewBox="0 0 2000 2001" fill="none" xmlns="http://www.w3.org/2000/svg">
<g clip-path="url(#clip0_11_42)">
<path d="M1185.25 1168.62C1176.63 1176.37 1164 1187.75 1164 1207.25C1164 1227.5 1177.38 1247.87 1201.5 1264.25C1311.13 1340.87 1516.63 1331.75 1525.5 1331.5H1525.75C1609.12 1331.5 1690.75 1309 1762.5 1266.62C1834.65 1224.39 1894.51 1164.04 1936.17 1091.56C1977.82 1019.08 1999.83 936.975 2000 853.375C2002.25 688.875 1945 576.125 1916.75 520.375L1911.75 510.375C1745.37 186.875 1388.25 1 1000 1C794.187 1.00029 593.387 64.5045 425.001 182.847C256.614 301.189 128.844 468.606 59.125 662.25C186 507 397.875 408.75 625 408.75C978.75 408.75 1251.25 644.375 1251.25 1008.38H1250.75V1008.62C1250.75 1050.87 1229.75 1112.63 1189.87 1164.13L1190.62 1163.37L1185.25 1168.62Z" fill="#3B82F6"/>
<path d="M1.25003 970.125C-2.90645 1127.06 29.3088 1282.83 95.375 1425.25C169.361 1582.77 283.173 1718.25 425.56 1818.3C567.948 1918.36 733.982 1979.52 907.25 1995.75C873.233 1982.93 840.401 1967.16 809.125 1948.63H807.875L792.875 1939.25C716.535 1891.64 650.283 1829.51 597.875 1756.38C538.222 1674.73 497.161 1581.02 477.574 1481.82C457.987 1382.63 460.349 1280.34 484.494 1182.15C508.639 1083.96 553.982 992.25 617.34 913.448C680.699 834.646 760.537 770.667 851.25 726L852.5 725.5L855.625 724C881.625 711.75 933.125 687.5 1001.5 688.375C1017.67 688.458 1033.67 689.833 1049.5 692.5C1012.8 657.272 970.947 627.85 925.375 605.25L924.125 604.625C793.5 536.25 649.875 533.875 625 533.875C320 533.875 22 738.125 1.25003 970.125ZM1284.12 1959.12C1295.21 1955.79 1306.25 1952.29 1317.25 1948.63C1304.5 1952.54 1291.71 1956.12 1278.87 1959.37L1284.12 1959.12Z" fill="#3B82F6"/>
<path d="M1278.5 1959.38C1291.23 1956.19 1303.87 1952.61 1316.38 1948.63L1326.63 1945.5C1541.86 1871.08 1725.35 1725.6 1846.88 1533C1850.4 1527.15 1851.91 1520.31 1851.17 1513.52C1850.44 1506.73 1847.5 1500.37 1842.81 1495.4C1838.12 1490.44 1831.93 1487.16 1825.19 1486.04C1818.45 1484.93 1811.54 1486.06 1805.5 1489.25C1778.67 1503.25 1751.04 1515.5 1722.63 1526C1632.91 1559.3 1537.95 1576.24 1442.25 1576C1072.63 1576 750.75 1322.12 750.75 995.5C751 978.583 752.917 961.958 756.5 945.625C660.379 1041.35 601.731 1168.35 591.182 1303.6C580.634 1438.85 618.884 1573.4 699 1682.88L699.375 1683.5C738.75 1738.63 787.75 1786.13 844.125 1823.63H844.5L862.5 1834.87C972.125 1903.62 1077.63 1969.63 1278.5 1959.38Z" fill="#3B82F6"/>
</g>
<defs>
<clipPath id="clip0_11_42">
<rect width="2000" height="2000" fill="white" transform="translate(0 1)"/>
</clipPath>
</defs>
</svg>
