<svg width="2000" height="2001" viewBox="0 0 2000 2001" fill="none" xmlns="http://www.w3.org/2000/svg">
<path d="M1228.5 376H1726.25C1760.99 375.996 1795.35 383.233 1827.14 397.249C1858.92 411.265 1887.44 431.751 1910.87 457.403C1934.3 483.054 1952.12 513.306 1963.21 546.23C1974.29 579.155 1978.39 614.028 1975.25 648.625L1895.62 1523.62C1889.98 1585.74 1861.32 1643.5 1815.28 1685.57C1769.23 1727.64 1709.12 1750.98 1646.75 1751H353.125C290.755 1750.98 230.646 1727.64 184.6 1685.57C138.553 1643.5 109.894 1585.74 104.25 1523.62L24.625 648.625C19.4046 590.732 34.5213 532.828 67.375 484.875L62.5 376C62.5 309.696 88.8392 246.107 135.723 199.223C182.607 152.339 246.196 126 312.5 126H771.5C837.799 126.014 901.377 152.363 948.25 199.25L1051.75 302.75C1098.62 349.637 1162.2 375.986 1228.5 376ZM188.25 391C215.083 381.083 243.583 376.083 273.75 376H948.25L859.875 287.625C836.438 264.181 804.649 251.007 771.5 251H312.5C279.755 250.994 248.316 263.837 224.941 286.768C201.566 309.699 188.122 340.886 187.5 373.625L188.25 391Z" fill="#3B82F6"/>
</svg>
