<svg width="2000" height="2001" viewBox="0 0 2000 2001" fill="none" xmlns="http://www.w3.org/2000/svg">
<path d="M0 376C0 309.696 26.3392 246.107 73.2233 199.223C120.107 152.339 183.696 126 250 126H1750C1816.3 126 1879.89 152.339 1926.78 199.223C1973.66 246.107 2000 309.696 2000 376V1626C2000 1692.3 1973.66 1755.89 1926.78 1802.78C1879.89 1849.66 1816.3 1876 1750 1876H250C183.696 1876 120.107 1849.66 73.2233 1802.78C26.3392 1755.89 0 1692.3 0 1626V376ZM1187.5 1063.5H812.5C795.924 1063.5 780.027 1070.08 768.306 1081.81C756.585 1093.53 750 1109.42 750 1126C750 1142.58 756.585 1158.47 768.306 1170.19C780.027 1181.92 795.924 1188.5 812.5 1188.5H1187.5C1204.08 1188.5 1219.97 1181.92 1231.69 1170.19C1243.42 1158.47 1250 1142.58 1250 1126C1250 1109.42 1243.42 1093.53 1231.69 1081.81C1219.97 1070.08 1204.08 1063.5 1187.5 1063.5ZM393.25 1019.25C387.439 1025.06 382.829 1031.96 379.685 1039.55C376.54 1047.14 374.921 1055.28 374.921 1063.5C374.921 1071.72 376.54 1079.86 379.685 1087.45C382.829 1095.04 387.439 1101.94 393.25 1107.75C404.986 1119.49 420.903 1126.08 437.5 1126.08C445.718 1126.08 453.855 1124.46 461.448 1121.32C469.04 1118.17 475.939 1113.56 481.75 1107.75L731.75 857.75C737.57 851.944 742.188 845.047 745.339 837.454C748.49 829.861 750.112 821.721 750.112 813.5C750.112 805.279 748.49 797.139 745.339 789.546C742.188 781.953 737.57 775.056 731.75 769.25L481.75 519.25C475.939 513.439 469.04 508.829 461.448 505.685C453.855 502.54 445.718 500.921 437.5 500.921C429.282 500.921 421.145 502.54 413.552 505.685C405.96 508.829 399.061 513.439 393.25 519.25C387.439 525.061 382.829 531.96 379.685 539.552C376.54 547.144 374.921 555.282 374.921 563.5C374.921 571.718 376.54 579.856 379.685 587.448C382.829 595.04 387.439 601.939 393.25 607.75L599.125 813.5L393.25 1019.25Z" fill="#3B82F6"/>
</svg>
